{
  "accessors": [
    {
      "bufferView": 2,
      "componentType": 5126,
      "count": 65532,
      "max": [
        2.61116099357605,
        3.0747392177581787,
        0.3018234372138977
      ],
      "min": [
        -2.829907178878784,
        -3.596281051635742,
        -21.81473159790039
      ],
      "type": "VEC3"
    },
    {
      "bufferView": 2,
      "byteOffset": 786384,
      "componentType": 5126,
      "count": 65532,
      "max": [
        0.9999852180480957,
        0.9999935626983643,
        0.9999711513519287
      ],
      "min": [
        -0.9999874830245972,
        -0.9999950528144836,
        -0.9999023079872131
      ],
      "type": "VEC3"
    },
    {
      "bufferView": 3,
      "componentType": 5126,
      "count": 65532,
      "max": [
        0.9999504089355469,
        0.9999574422836304,
        0.9994283318519592,
        1.0
      ],
      "min": [
        -0.9999993443489075,
        -0.9999982714653015,
        -0.999962329864502,
        -1.0
      ],
      "type": "VEC4"
    },
    {
      "bufferView": 1,
      "componentType": 5126,
      "count": 65532,
      "max": [
        0.994700014591217,
        0.9908999800682068
      ],
      "min": [
        0.006000000052154064,
        0.00430000014603138
      ],
      "type": "VEC2"
    },
    {
      "bufferView": 0,
      "componentType": 5125,
      "count": 203334,
      "type": "SCALAR"
    },
    {
      "bufferView": 2,
      "byteOffset": 1572768,
      "componentType": 5126,
      "count": 29251,
      "max": [
        2.614746570587158,
        3.069214105606079,
        0.30198249220848083
      ],
      "min": [
        -2.816951036453247,
        -3.594850778579712,
        -21.81473159790039
      ],
      "type": "VEC3"
    },
    {
      "bufferView": 2,
      "byteOffset": 1923780,
      "componentType": 5126,
      "count": 29251,
      "max": [
        0.9999074339866638,
        0.9999862909317017,
        0.9999141097068787
      ],
      "min": [
        -0.9999862313270569,
        -0.9999950528144836,
        -0.9998673796653748
      ],
      "type": "VEC3"
    },
    {
      "bufferView": 3,
      "byteOffset": 1048512,
      "componentType": 5126,
      "count": 29251,
      "max": [
        0.9999038577079773,
        0.9999836087226868,
        0.9995629191398621,
        1.0
      ],
      "min": [
        -0.9999995827674866,
        -0.9998787641525269,
        -0.9968460202217102,
        -1.0
      ],
      "type": "VEC4"
    },
    {
      "bufferView": 1,
      "byteOffset": 524256,
      "componentType": 5126,
      "count": 29251,
      "max": [
        0.9937999844551086,
        0.9908999800682068
      ],
      "min": [
        0.008899999782443047,
        0.005900000222027302
      ],
      "type": "VEC2"
    },
    {
      "bufferView": 0,
      "byteOffset": 813336,
      "componentType": 5125,
      "count": 84378,
      "type": "SCALAR"
    }
  ],
  "asset": {
    "extras": {
      "author": "HolmanArt (https://sketchfab.com/HolmanArt)",
      "license": "CC-BY-4.0 (http://creativecommons.org/licenses/by/4.0/)",
      "source": "https://sketchfab.com/3d-models/scp-173-5756d40c49fa48ab972a7aa81ecd250e",
      "title": "SCP-173"
    },
    "generator": "Sketchfab-13.19.0",
    "version": "2.0"
  },
  "bufferViews": [
    {
      "buffer": 0,
      "byteLength": 1150848,
      "name": "floatBufferViews",
      "target": 34963
    },
    {
      "buffer": 0,
      "byteLength": 758264,
      "byteOffset": 1150848,
      "byteStride": 8,
      "name": "floatBufferViews",
      "target": 34962
    },
    {
      "buffer": 0,
      "byteLength": 2274792,
      "byteOffset": 1909112,
      "byteStride": 12,
      "name": "floatBufferViews",
      "target": 34962
    },
    {
      "buffer": 0,
      "byteLength": 1516528,
      "byteOffset": 4183904,
      "byteStride": 16,
      "name": "floatBufferViews",
      "target": 34962
    }
  ],
  "buffers": [
    {
      "byteLength": 5700432,
      "uri": "scene.bin"
    }
  ],
  "images": [
    {
      "uri": "textures/01___Default_baseColor.png"
    },
    {
      "uri": "textures/01___Default_metallicRoughness.png"
    },
    {
      "uri": "textures/01___Default_normal.png"
    }
  ],
  "materials": [
    {
      "doubleSided": true,
      "name": "01___Default",
      "normalTexture": {
        "index": 2
      },
      "pbrMetallicRoughness": {
        "baseColorTexture": {
          "index": 0
        },
        "metallicFactor": 0.0,
        "metallicRoughnessTexture": {
          "index": 1
        },
        "roughnessFactor": 0.8198317139502199
      }
    }
  ],
  "meshes": [
    {
      "name": "Object_0",
      "primitives": [
        {
          "attributes": {
            "NORMAL": 1,
            "POSITION": 0,
            "TANGENT": 2,
            "TEXCOORD_0": 3
          },
          "indices": 4,
          "material": 0,
          "mode": 4
        }
      ]
    },
    {
      "name": "Object_1",
      "primitives": [
        {
          "attributes": {
            "NORMAL": 6,
            "POSITION": 5,
            "TANGENT": 7,
            "TEXCOORD_0": 8
          },
          "indices": 9,
          "material": 0,
          "mode": 4
        }
      ]
    }
  ],
  "nodes": [
    {
      "children": [
        1
      ],
      "matrix": [
        1.0,
        0.0,
        0.0,
        0.0,
        0.0,
        2.220446049250313e-16,
        -1.0,
        0.0,
        0.0,
        1.0,
        2.220446049250313e-16,
        0.0,
        0.0,
        0.0,
        0.0,
        1.0
      ],
      "name": "Sketchfab_model"
    },
    {
      "children": [
        2
      ],
      "name": "root"
    },
    {
      "children": [
        3
      ],
      "matrix": [
        1.0,
        0.0,
        0.0,
        0.0,
        0.0,
        2.220446049250313e-16,
        1.0,
        0.0,
        0.0,
        -1.0,
        2.220446049250313e-16,
        0.0,
        0.0,
        0.0,
        0.0,
        1.0
      ],
      "name": "GLTF_SceneRootNode"
    },
    {
      "children": [
        4,
        5
      ],
      "matrix": [
        1.0,
        0.0,
        0.0,
        0.0,
        0.0,
        0.0,
        1.0,
        0.0,
        0.0,
        -1.0,
        0.0,
        0.0,
        0.0,
        0.0,
        0.0,
        1.0
      ],
      "name": "Scene_Root_0"
    },
    {
      "mesh": 0,
      "name": "Object_4"
    },
    {
      "mesh": 1,
      "name": "Object_5"
    }
  ],
  "samplers": [
    {
      "magFilter": 9729,
      "minFilter": 9987,
      "wrapS": 10497,
      "wrapT": 10497
    }
  ],
  "scene": 0,
  "scenes": [
    {
      "name": "Sketchfab_Scene",
      "nodes": [
        0
      ]
    }
  ],
  "textures": [
    {
      "sampler": 0,
      "source": 0
    },
    {
      "sampler": 0,
      "source": 1
    },
    {
      "sampler": 0,
      "source": 2
    }
  ]
}
